# xmcd CD database file
#
# Track frame offsets:
#	150
#	18990
#	32494
#	48738
#	61631
#	80656
#	119731
#	130852
#	144663
#	154315
#	172297
#	189746
#	213351
#
# Disc length: 3269 seconds
#
# Revision: 0
# Processed by: cddbd v1.5PL3 Copyright (c) Steve Scherf et al.
# Submitted via: CDex 1.40Release
#
DISCID=c00cc30d
DTITLE=ZAZEN BOYS - ZAZEN BOYS
DYEAR=2004
DGENRE=Rock
TTITLE0=Fender Telecaster
TTITLE1=USODARAKE
TTITLE2=The Days Of NEKOMACHI
TTITLE3=YURETA YURETA YURETA
TTITLE4=COLD SUMMER
TTITLE5=開戦前夜
TTITLE6=INSTANT RADICAL
TTITLE7=MABOROSHI IN MY BLOOD
TTITLE8=IKASAMA LOVE
TTITLE9=SI・GE・KI
TTITLE10=KIMOCHI
TTITLE11=WHISKY&UNUBORE
TTITLE12=自問自答
EXTD=YEAR: 2004.01.10 ID3G: 17
EXTT0=
EXTT1=
EXTT2=
EXTT3=
EXTT4=
EXTT5=
EXTT6=
EXTT7=
EXTT8=
EXTT9=
EXTT10=
EXTT11=
EXTT12=
PLAYORDER=
